name C:\Users\u0101727\Documents\MyRepositories\paper-ad\predictivesimulations_2d/Results/PredSim_2D/IK_c1.mot
datacolumns 11
datarows 47
range 0.63318373 1.07449360
endheader
time	pelvis_tilt	pelvis_tx	pelvis_ty	hip_flexion_l	hip_flexion_r	knee_angle_l	knee_angle_r	ankle_angle_l	ankle_angle_r	lumbar_extension	
          0.63318373	        -15.06076637	          0.85496163	          0.89988689	         25.70116952	         11.38022170	        -10.65074400	        -40.88796625	          8.49580020	         -0.30637330	         10.31476933	
          0.64277742	        -15.07786072	          0.86693399	          0.90132447	         24.78230670	         12.65320273	        -10.40358274	        -41.78448477	          8.59861935	          0.66973561	         10.27640419	
          0.65237111	        -15.09247620	          0.87885050	          0.90251837	         23.84817070	         13.95862419	        -10.13157940	        -42.57308481	          8.74226687	          1.72580281	         10.23405291	
          0.66196481	        -15.10459764	          0.89071880	          0.90347188	         22.90319800	         15.29147970	         -9.84254736	        -43.24560111	          8.92087675	          2.84415620	         10.18803429	
          0.67155850	        -15.11434809	          0.90254617	          0.90419560	         21.95128359	         16.64579137	         -9.54354310	        -43.79450589	          9.12796101	          4.00698273	         10.13882393	
          0.68115219	        -15.12189043	          0.91433888	          0.90470646	         20.99659770	         18.01573692	         -9.24211672	        -44.21212782	          9.35584137	          5.19643621	         10.08685036	
          0.69074589	        -15.12736567	          0.92610247	          0.90502522	         20.04370965	         19.39580972	         -8.94613441	        -44.49068722	          9.59646671	          6.39469665	         10.03245752	
          0.70033958	        -15.13091925	          0.93784292	          0.90517330	         19.09742588	         20.77954482	         -8.66396826	        -44.62320825	          9.84189125	          7.58397125	          9.97602179	
          0.70993327	        -15.13277083	          0.94956728	          0.90517095	         18.16099326	         22.16001401	         -8.40125154	        -44.60406717	         10.08477588	          8.74658844	          9.91807666	
          0.71952697	        -15.13323703	          0.96128392	          0.90503628	         17.23521912	         23.53030587	         -8.15928992	        -44.42923368	         10.31847167	          9.86517927	          9.85936690	
          0.72912066	        -15.13259969	          0.97300160	          0.90478483	         16.32151701	         24.88255826	         -7.94087815	        -44.09666869	         10.53618529	         10.92300795	          9.80062414	
          0.73871435	        -15.13110388	          0.98472850	          0.90442971	         15.42204764	         26.20880749	         -7.74962752	        -43.60539955	         10.73182903	         11.90463213	          9.74246793	
          0.74830804	        -15.12899011	          0.99647374	          0.90398160	         14.53839384	         27.50020240	         -7.58859361	        -42.95853586	         10.90075126	         12.79664992	          9.68563599	
          0.75790174	        -15.12651658	          1.00824579	          0.90344964	         13.67146949	         28.74871481	         -7.45981329	        -42.16067476	         11.03998520	         13.58882889	          9.63082469	
          0.76749543	        -15.12394661	          1.02005123	          0.90284192	         12.82212577	         29.94822458	         -7.36431795	        -41.21607779	         11.14839221	         14.27509118	          9.57851372	
          0.77708912	        -15.12151860	          1.03189634	          0.90216499	         11.99107634	         31.09301934	         -7.30378759	        -40.13143598	         11.22668072	         14.85383976	          9.52914422	
          0.78668282	        -15.11945476	          1.04378550	          0.90142420	         11.17864331	         32.18015848	         -7.27912034	        -38.91223773	         11.27766229	         15.32790321	          9.48290571	
          0.79627651	        -15.11796624	          1.05572232	          0.90062336	         10.38471299	         33.20825506	         -7.29072262	        -37.56351118	         11.30579192	         15.70355809	          9.43986625	
          0.80587020	        -15.11727269	          1.06771016	          0.89976442	          9.60903574	         34.17671772	         -7.33860784	        -36.09065418	         11.31638796	         15.98917077	          9.40000557	
          0.81546389	        -15.11765670	          1.07975354	          0.89884752	          8.85099732	         35.08405958	         -7.42220091	        -34.50115373	         11.31471534	         16.19388479	          9.36339777	
          0.82505759	        -15.11950866	          1.09185893	          0.89787154	          8.10954693	         35.92681182	         -7.54044171	        -32.80275490	         11.30438278	         16.32681938	          9.33035092	
          0.83465128	        -15.12315048	          1.10403445	          0.89683533	          7.38434415	         36.70039008	         -7.69363132	        -31.00690972	         11.28621496	         16.39675670	          9.30125048	
          0.84424497	        -15.12865136	          1.11629209	          0.89574153	          6.67628929	         37.39806962	         -7.88544423	        -29.13980901	         11.25860090	         16.41184053	          9.27668753	
          0.85383867	        -15.13603998	          1.12865012	          0.89460256	          5.98740673	         38.00689324	         -8.12211009	        -27.23569433	         11.21550394	         16.37935803	          9.25796696	
          0.86343236	        -15.14533846	          1.14113002	          0.89344012	          5.32085204	         38.51107571	         -8.41074974	        -25.32676015	         11.14451080	         16.30570497	          9.24680989	
          0.87302605	        -15.15622829	          1.15375058	          0.89227673	          4.68103560	         38.90120031	         -8.75983417	        -23.44083901	         11.02934022	         16.19627120	          9.24440237	
          0.88261974	        -15.16791230	          1.16652639	          0.89113036	          4.07321713	         39.17713874	         -9.17921367	        -21.59981222	         10.85346719	         16.05518059	          9.25114972	
          0.89221344	        -15.17917722	          1.17947029	          0.89001532	          3.50268540	         39.34577431	         -9.67921647	        -19.82530225	         10.60261752	         15.88502960	          9.26698009	
          0.90180713	        -15.18880367	          1.19259616	          0.88894377	          2.97432924	         39.41432373	        -10.26952809	        -18.13209373	         10.26394047	         15.68701098	          9.29198552	
          0.91140082	        -15.19564804	          1.20591846	          0.88792489	          2.49258198	         39.38960937	        -10.95871664	        -16.53196358	          9.82528478	         15.46101966	          9.32640425	
          0.92099452	        -15.19845600	          1.21945137	          0.88696396	          2.06205889	         39.27922950	        -11.75577876	        -15.04195880	          9.27580174	         15.20577126	          9.37037539	
          0.93058821	        -15.19596459	          1.23320931	          0.88606204	          1.68827838	         39.08822494	        -12.67100261	        -13.67662332	          8.60451994	         14.91924815	          9.42419152	
          0.94018190	        -15.18676963	          1.24720586	          0.88521483	          1.37714977	         38.82137298	        -13.71531610	        -12.45583324	          7.80100012	         14.59857199	          9.48810487	
          0.94977559	        -15.16931415	          1.26145278	          0.88441120	          1.13433213	         38.48403488	        -14.89892518	        -11.40838483	          6.85772829	         14.23994191	          9.56226512	
          0.95936929	        -15.14215671	          1.27596115	          0.88363203	          0.96461487	         38.07654104	        -16.23112204	        -10.56515216	          5.77472312	         13.83899243	          9.64726179	
          0.96896298	        -15.10410616	          1.29073925	          0.88284580	          0.87091629	         37.59184769	        -17.72487607	         -9.95978850	          4.57434040	         13.39073703	          9.74415604	
          0.97855667	        -15.05500811	          1.30578078	          0.88200866	          0.85596376	         37.01197588	        -19.38613141	         -9.64044406	          3.27012081	         12.89037550	          9.85409177	
          0.98815037	        -14.99742036	          1.32106872	          0.88114400	          0.92699369	         36.26886035	        -21.21176492	         -9.72767830	          1.84205653	         12.33583732	          9.98104249	
          0.99774406	        -14.93955434	          1.33641718	          0.88037875	          1.08864175	         35.40564368	        -23.18319609	        -10.04179912	          0.37550407	         11.76646099	         10.11558030	
          1.00733775	        -14.89238479	          1.35148544	          0.87994242	          1.36776147	         34.54751194	        -25.20799238	        -10.32186322	         -0.90798280	         11.21618824	         10.23446089	
          1.01693144	        -14.86447673	          1.36602639	          0.88009674	          1.79261391	         33.73172165	        -27.14592280	        -10.58001442	         -1.91038501	         10.68489795	         10.32377047	
          1.02652514	        -14.85817187	          1.37997704	          0.88099748	          2.35910473	         32.96072791	        -28.93434424	        -10.81112478	         -2.66108051	         10.18725040	         10.38236754	
          1.03611883	        -14.86877780	          1.39342065	          0.88260384	          3.05045404	         32.21600159	        -30.59399188	        -11.00320638	         -3.16950355	          9.73953627	         10.41639212	
          1.04571252	        -14.88970265	          1.40648147	          0.88470600	          3.84611667	         31.47642617	        -32.15397341	        -11.14733920	         -3.44840027	          9.35324787	         10.43287126	
          1.05530622	        -14.91558275	          1.41926696	          0.88707137	          4.73054011	         30.72519338	        -33.63187868	        -11.23670082	         -3.51333851	          9.03466186	         10.43712005	
          1.06489991	        -14.94297919	          1.43185139	          0.88951724	          5.69169964	         29.95285898	        -35.03619104	        -11.26937926	         -3.37934327	          8.78539629	         10.43233326	
          1.07449360	        -14.96999755	          1.44428172	          0.89191998	          6.72058045	         29.15490090	        -36.36821259	        -11.24582222	         -3.06271017	          8.60442013	         10.42026780	
